<svg xmlns="http://www.w3.org/2000/svg" version="1.1" xmlns:xlink="http://www.w3.org/1999/xlink" xmlns:svgjs="http://svgjs.dev/svgjs" width="1600" height="560" preserveAspectRatio="none" viewBox="0 0 1600 560"><g mask="url(&quot;#SvgjsMask1011&quot;)" fill="none"><rect width="1600" height="560" x="0" y="0" fill="rgba(94, 127, 84, 1)"></rect><path d="M1600 0L1361.79 0L1600 116.58z" fill="rgba(255, 255, 255, .1)"></path><path d="M1361.79 0L1600 116.58L1600 125.00999999999999L787.3299999999999 0z" fill="rgba(255, 255, 255, .075)"></path><path d="M787.3299999999999 0L1600 125.00999999999999L1600 336.02L699.8699999999999 0z" fill="rgba(255, 255, 255, .05)"></path><path d="M699.8699999999999 0L1600 336.02L1600 474.66999999999996L516.7299999999999 0z" fill="rgba(255, 255, 255, .025)"></path><path d="M0 560L219.14 560L0 450.8z" fill="rgba(0, 0, 0, .1)"></path><path d="M0 450.8L219.14 560L370.1 560L0 369.38z" fill="rgba(0, 0, 0, .075)"></path><path d="M0 369.38L370.1 560L402.94000000000005 560L0 304.78999999999996z" fill="rgba(0, 0, 0, .05)"></path><path d="M0 304.78999999999996L402.94000000000005 560L899.1500000000001 560L0 158.98999999999995z" fill="rgba(0, 0, 0, .025)"></path></g><defs><mask id="SvgjsMask1011"><rect width="1600" height="560" fill="#ffffff"></rect></mask></defs></svg>